<?xml version="1.0" encoding="UTF-8" standalone="no"?>
<!-- Created with Inkscape (http://www.inkscape.org/) -->

<svg
   width="23.403307mm"
   height="14.150131mm"
   viewBox="0 0 23.403306 14.150132"
   version="1.1"
   id="svg172"
   xml:space="preserve"
   inkscape:version="1.4 (86a8ad7, 2024-10-11)"
   sodipodi:docname="logo.svg"
   xmlns:inkscape="http://www.inkscape.org/namespaces/inkscape"
   xmlns:sodipodi="http://sodipodi.sourceforge.net/DTD/sodipodi-0.dtd"
   xmlns="http://www.w3.org/2000/svg"
   xmlns:svg="http://www.w3.org/2000/svg"><sodipodi:namedview
     id="namedview174"
     pagecolor="#ffffff"
     bordercolor="#000000"
     borderopacity="0.25"
     inkscape:showpageshadow="2"
     inkscape:pageopacity="0.0"
     inkscape:pagecheckerboard="true"
     inkscape:deskcolor="#d1d1d1"
     inkscape:document-units="mm"
     showgrid="false"
     inkscape:zoom="7.972371"
     inkscape:cx="11.853437"
     inkscape:cy="29.664952"
     inkscape:window-width="1920"
     inkscape:window-height="1017"
     inkscape:window-x="-8"
     inkscape:window-y="-8"
     inkscape:window-maximized="1"
     inkscape:current-layer="layer1" /><defs
     id="defs169"><linearGradient
       id="swatch86"
       inkscape:swatch="solid"><stop
         style="stop-color:#ffffff;stop-opacity:1;"
         offset="0"
         id="stop87" /></linearGradient><linearGradient
       id="swatch29"
       inkscape:swatch="solid"><stop
         style="stop-color:#000000;stop-opacity:1;"
         offset="0"
         id="stop29" /></linearGradient><linearGradient
       id="swatch10"
       inkscape:swatch="solid"><stop
         style="stop-color:#000000;stop-opacity:1;"
         offset="0"
         id="stop10" /></linearGradient><linearGradient
       id="swatch9"
       inkscape:swatch="solid"><stop
         style="stop-color:#000000;stop-opacity:1;"
         offset="0"
         id="stop9" /></linearGradient><linearGradient
       id="swatch8"
       inkscape:swatch="solid"><stop
         style="stop-color:#000000;stop-opacity:1;"
         offset="0"
         id="stop8" /></linearGradient><linearGradient
       id="swatch7"
       inkscape:swatch="solid"><stop
         style="stop-color:#000000;stop-opacity:1;"
         offset="0"
         id="stop7" /></linearGradient><linearGradient
       id="swatch6"
       inkscape:swatch="solid"><stop
         style="stop-color:#000000;stop-opacity:1;"
         offset="0"
         id="stop6" /></linearGradient><linearGradient
       id="swatch5"
       inkscape:swatch="solid"><stop
         style="stop-color:#000000;stop-opacity:1;"
         offset="0"
         id="stop5" /></linearGradient><linearGradient
       id="swatch4"
       inkscape:swatch="solid"><stop
         style="stop-color:#000000;stop-opacity:1;"
         offset="0"
         id="stop4" /></linearGradient><linearGradient
       id="swatch3"
       inkscape:swatch="solid"><stop
         style="stop-color:#000000;stop-opacity:1;"
         offset="0"
         id="stop3" /></linearGradient><linearGradient
       id="swatch2"
       inkscape:swatch="solid"><stop
         style="stop-color:#000000;stop-opacity:1;"
         offset="0"
         id="stop2" /></linearGradient><linearGradient
       id="swatch1"
       inkscape:swatch="solid"><stop
         style="stop-color:#000000;stop-opacity:1;"
         offset="0"
         id="stop1" /></linearGradient></defs><g
     inkscape:label="Layer 1"
     inkscape:groupmode="layer"
     id="layer1"
     transform="translate(-66.188994,-106.36351)"><path
       style="fill:#ffffff;stroke:#ffffff;stroke-width:0.0569078;stroke-dasharray:none;stroke-opacity:1"
       d="m 63.825165,6.7050415 c -0.933584,-0.066084 -2.033752,0.4856187 -2.010606,1.5434163 0.05892,2.4410362 1.264646,4.6935482 1.841084,7.0091872 0.730527,2.331008 0.898592,4.72932 1.106596,7.15129 0.04117,0.929039 0.731393,1.781587 1.698248,1.822212 1.582648,0.135608 3.240928,0.232777 4.60771,1.145313 1.033203,0.645469 2.129248,1.455475 2.533897,2.65492 -1.262366,-1.438316 -2.657695,-3.064727 -4.686106,-3.302911 -2.086541,-0.17848 -4.106712,-0.809315 -5.85256,-1.942731 -1.144929,-0.705509 -2.62788,-0.951457 -3.832989,-0.24157 -0.919996,0.500136 -2.233839,1.144311 -2.237464,2.356772 0.308047,1.37729 1.844619,1.907446 2.988103,2.432473 1.410558,0.595482 3.025664,0.927591 4.102793,2.064258 0.243886,1.447488 1.025089,2.782741 2.185036,3.696115 0.762404,0.653265 1.678388,1.080463 2.585345,1.490989 -0.750257,0.004 -1.901386,0.415429 -1.659295,1.37021 0.420391,1.040909 1.786697,1.108971 2.750956,1.201171 2.466032,0.0092 5.088641,-0.01833 7.333432,-1.166873 0.654029,-0.3129 1.371146,-1.395266 0.656319,-1.974593 -0.287118,-0.149845 -0.681486,-0.03958 -0.193539,-0.377524 2.125414,-2.085784 3.404599,-4.934279 3.694889,-7.886122 0.315063,-1.429094 1.563174,-2.422051 2.60078,-3.358033 1.529348,-1.266733 3.392013,-2.846848 3.262243,-5.036927 0.06562,-0.699075 -0.323389,-1.705015 -1.19039,-1.498094 -1.938177,0.626876 -3.416343,2.162967 -5.211114,3.084873 -0.337946,0.128582 -0.795221,0.516686 -1.146047,0.345921 0.06989,-1.399102 0.8975,-2.64442 1.417639,-3.918101 1.048536,-2.194562 2.235118,-4.50211 2.005806,-7.0149211 0.134153,-1.2982022 -1.568679,-1.9612303 -2.51822,-1.2310582 -1.515818,1.2085974 -2.259748,3.1097753 -3.060696,4.8196313 -0.753713,1.94696 -1.58056,3.983919 -1.52031,6.105551 0.0029,0.304579 0.196589,0.658155 0.2859,0.869703 -2.137981,0.27257 -4.304858,0.194847 -6.454665,0.05365 -0.826918,0.01474 -1.124684,-0.838278 -1.139939,-1.52721 C 68.410818,14.196287 68.384647,10.604695 66.315944,7.8839175 65.721291,7.129812 64.796733,6.6513116 63.825165,6.7050415 Z"
       id="path2"
       transform="matrix(0.26458333,0,0,0.26458333,66.249014,106.42354)" /><path
       style="fill:#ffffff;stroke:#ffffff;stroke-width:0.0569078;stroke-dasharray:none;stroke-opacity:1"
       d="m 60.084462,11.72041 c -0.95379,-0.09549 -1.736089,0.96663 -1.252617,1.834215 0.200604,0.646343 0.968795,0.61731 1.367271,1.012775 0.580562,1.419324 0.517728,3.071299 0.147972,4.539114 -0.192032,0.848345 -1.546121,0.568292 -1.669829,1.502014 -0.06161,0.904972 1.098891,1.153124 1.794772,1.263641 1.055693,0.163028 2.532521,-0.185169 2.656636,-1.453261 0.186201,-2.107299 0.202913,-4.27727 -0.255031,-6.353241 -0.266263,-1.310607 -1.434304,-2.345923 -2.789174,-2.345257 z"
       id="path3"
       transform="matrix(0.26458333,0,0,0.26458333,66.249014,106.42354)" /><path
       style="fill:#ffffff;stroke:#ffffff;stroke-width:0.0569078;stroke-dasharray:none;stroke-opacity:1"
       d="m 53.470311,8.6953136 c -1.120844,-0.02264 -2.684889,0.3831682 -2.751936,1.7352404 -0.122511,0.910875 0.50298,1.672652 1.293775,2.020406 0.703349,1.482652 0.566361,3.224913 0.582578,4.811539 -0.09914,1.130257 -0.01548,2.352879 -0.637945,3.335984 -1.214065,0.411134 -1.694725,2.163643 -0.720996,3.044695 0.94669,0.837419 2.354076,0.664056 3.516294,0.561265 1.300673,-0.258947 1.459319,-1.847504 1.437184,-2.928216 0.0086,-3.576311 0.120588,-7.161445 -0.07384,-10.732943 -0.06283,-0.9617872 -0.805466,-1.8734166 -1.827351,-1.8269016 -0.272002,-0.021177 -0.545071,-0.02468 -0.817766,-0.021069 z"
       id="path4"
       transform="matrix(0.26458333,0,0,0.26458333,66.249014,106.42354)" /><path
       style="fill:#ffffff;stroke:#ffffff;stroke-width:0.0569078;stroke-dasharray:none;stroke-opacity:1"
       d="m 16.13752,8.6960485 c -0.942422,-0.08555 -1.976529,0.3868729 -2.179892,1.3866245 -0.343795,2.188534 -0.158741,4.430286 -0.230013,6.639875 0.0778,2.287243 -0.09413,4.66925 0.671724,6.861834 0.166562,0.510179 0.781014,1.283391 1.218231,0.552831 1.22043,-1.514865 1.266462,-3.590318 1.514351,-5.438602 0.256903,-1.99968 0.03008,-4.049569 0.65338,-5.985025 0.375972,-0.580353 1.282706,-0.72382 1.406468,-1.512548 C 19.577447,10.159807 18.848481,9.0174314 17.769132,8.8508801 17.237993,8.7113752 16.684156,8.6854705 16.13752,8.6960485 Z"
       id="path5"
       transform="matrix(0.26458333,0,0,0.26458333,66.249014,106.42354)" /><path
       style="fill:#ffffff;stroke:#ffffff;stroke-width:0.0569078;stroke-dasharray:none;stroke-opacity:1"
       d="m 8.833486,11.716 c -1.0287715,-0.118124 -1.8609112,0.736433 -1.9696931,1.717357 -0.2001701,2.270532 -0.1238909,4.565675 -0.056592,6.842234 0.073755,0.976102 0.7361073,2.109486 1.8550395,2.01575 C 9.5949865,22.289 10.928484,22.171205 11.293398,21.154113 11.451214,20.289562 10.603344,19.740449 9.8883988,19.540875 9.2701816,18.430923 9.3502765,17.075922 9.443603,15.831732 c 0.097474,-0.646596 0.2147062,-1.510037 1.00802,-1.620543 0.736136,-0.276949 1.27382,-1.350157 0.487279,-1.899627 C 10.381559,11.785855 9.5615723,11.718835 8.833486,11.716 Z"
       id="path6"
       transform="matrix(0.26458333,0,0,0.26458333,66.249014,106.42354)" /><path
       style="fill:#ffffff;stroke:#ffffff;stroke-width:0.0569078;stroke-dasharray:none;stroke-opacity:1"
       d="m 24.920049,3.6689211 c -1.090519,-0.071057 -1.935847,0.8866572 -1.971898,1.9304953 -0.529234,5.2595786 -0.327196,10.5819676 0.281245,15.8266326 0.317116,2.011034 0.553897,4.296946 2.056173,5.817944 1.674091,1.273444 3.943492,0.893025 5.905637,1.004105 3.942288,-0.01702 7.893301,0.09696 11.829932,-0.128768 1.52615,-0.181885 3.146128,-0.927719 3.698074,-2.46922 0.754667,-1.974197 0.46901,-4.15505 0.575062,-6.222417 -0.05274,-3.121909 0.16618,-6.26933 -0.23649,-9.373193 C 46.89672,8.9995528 46.242442,7.8360932 45.040808,7.8175262 43.380802,7.5531511 41.640223,7.825254 40.033525,7.359646 38.991338,6.9416349 39.56488,5.6549153 39.082975,4.8720508 38.41696,3.2985015 35.881219,3.3030378 34.991943,4.6444582 34.558466,5.4294231 34.84493,6.4693807 34.299365,7.1842355 33.08885,7.7755216 31.640319,7.6373591 30.35171,7.6624552 29.429831,7.5481346 28.295485,7.7140882 27.550961,7.0619871 27.130275,6.0404634 27.479103,4.4940118 26.245182,3.9548206 25.836059,3.7527105 25.375155,3.6606419 24.920049,3.6689211 Z m 4.035176,8.7100129 c 0.757309,-0.173897 1.508062,0.363979 1.494174,1.165157 0.217823,2.815688 0.154268,5.652991 0.05022,8.47213 0.01929,0.744631 -0.352779,1.744575 -1.268051,1.601969 -0.614289,0.05982 -1.402596,0.04301 -1.580409,-0.700172 -0.45136,-2.069919 -0.20134,-4.20483 -0.266872,-6.310603 0.104291,-1.282166 -0.168525,-2.728926 0.47952,-3.904854 0.252328,-0.39604 0.684123,-0.312382 1.091416,-0.323627 z m 11.385023,0.02352 c 0.0089,-6.33e-4 0.0447,-0.0066 0,0 z m 1.341547,-0.0012 c 0.03628,0.0046 -0.03515,-0.005 0,0 z m -1.399365,0.01102 c 0.01135,-7.7e-4 0.05985,-0.01295 0,0 z m 1.454732,-0.002 c 0.04453,0.0078 -0.04521,-0.0096 0,0 z m -1.497849,0.01298 c 0.01385,-0.0012 0.06778,-0.02105 0,0 z m 1.538517,-0.0037 c 0.05635,0.01347 -0.05253,-0.01544 0,0 z m 0.03185,0.0098 c 0.143485,0.06871 -0.01562,-0.01283 0,0 z m 0.06125,0.0294 c 0.01073,0.0099 0.05654,0.03644 0,0 z m -1.662236,-0.0245 c 0.01475,-0.0027 0.06362,-0.02602 0,0 z m 0,0 c -0.0099,0.0011 -0.09428,0.05073 0,0 z m -0.07153,0.04214 c 0.01021,-0.0044 0.05445,-0.03997 0,0 z m 1.778359,0.01592 c 0.02793,0.02177 -0.03809,-0.03143 0,0 z m -1.806288,0.0069 c 0.01048,-0.0071 0.03982,-0.03407 0,0 z m 1.840585,0.02254 c 0.02439,0.02095 -0.02174,-0.02009 0,0 z m 0.216324,0.228328 c 0.02024,0.02551 -0.02171,-0.02934 0,0 z m 0.03283,0.04483 c 0.02354,0.03351 -0.02085,-0.03103 0,0 z m 0.03209,0.04973 c 0.01922,0.03057 -0.02008,-0.03388 0,0 z m -2.465056,0.02621 c 0.0069,-0.0083 0.0245,-0.03804 0,0 z m 2.49372,0.02376 c 0.02099,0.03761 -0.01549,-0.02985 0,0 z m 0.03062,0.06076 c 0.01384,0.02788 -0.01711,-0.03764 0,0 z m -2.58363,0.01445 c 0.0061,-0.0099 0.02262,-0.04433 0,0 z m -0.02597,0.05292 c 0.0046,-0.0082 0.02087,-0.04606 0,0 z m 2.636302,-0.0071 c 0.0142,0.03303 -0.01278,-0.03232 0,0 z m -2.660801,0.06541 c 0.0035,-0.0064 0.01606,-0.04128 0,0 z m 2.687504,0.0042 c 0.01105,0.02938 -0.01079,-0.03159 0,0 z m -2.712003,0.06247 c 0.0039,-0.0097 0.0137,-0.04196 0,0 z m -0.02254,0.07178 c 0.0032,-0.0083 0.01049,-0.03876 0,0 z m -0.02156,0.08134 c 0.0019,-0.0043 0.0085,-0.03616 0,0 z m 2.829842,0.04165 c 0.005,0.01978 -0.0047,-0.02204 0,0 z m 0,9.314395 c -0.0047,0.02204 0.005,-0.01978 0,0 z m -2.825922,0.05684 c -0.0016,-0.0086 -0.0088,-0.03194 0,0 z m 0.02278,0.08379 c -0.0013,-0.0074 -0.01246,-0.03967 0,0 z m 0.02401,0.0735 c -0.0018,-0.0074 -0.01587,-0.04424 0,0 z m 2.705388,0.04312 c -0.01079,0.03159 0.01105,-0.02938 0,0 z m -2.680155,0.02205 c -0.003,-0.0093 -0.01657,-0.03841 0,0 z m 2.653452,0.04753 c -0.01278,0.03232 0.0142,-0.03303 0,0 z m -2.626748,0.01323 c -0.0039,-0.0099 -0.02158,-0.04437 0,0 z m 0.02719,0.05292 c -0.0032,-0.008 -0.0255,-0.04618 0,0 z m 2.57285,-0.0059 c -0.01711,0.03764 0.01384,-0.02788 0,0 z m -0.03062,0.06076 c -0.01549,0.02985 0.02099,-0.03761 0,0 z m -2.48196,0.04116 c -0.0033,-0.007 -0.02806,-0.03937 0,0 z m 2.453296,0.0088 c -0.02008,0.03388 0.01922,-0.03057 0,0 z m -0.03209,0.04973 c -0.02085,0.03103 0.02354,-0.03351 0,0 z m -0.03283,0.04483 c -0.02171,0.02934 0.02024,-0.0255 0,0 z m -0.216324,0.228329 c -0.02174,0.02008 0.02439,-0.02095 0,0 z m -1.82172,0.03797 c -0.0059,-0.0066 -0.04443,-0.03457 0,0 z m 1.787423,-0.0086 c -0.03809,0.03143 0.02793,-0.02177 0,0 z m -1.754106,0.03258 c -0.01125,-0.0099 -0.05341,-0.03448 0,0 z m 1.720543,-0.0074 c -0.04126,0.02991 0.04841,-0.03224 0,0 z m -0.01103,0.0083 c -0.08219,0.03955 -0.09575,0.05121 0,0 z m -1.686734,0.01298 c 0.08285,0.0424 -0.0486,-0.02851 0,0 z m 0.0245,0.01151 c 0.06362,0.02602 0.01475,0.0027 0,0 z m 0.06125,0.01936 c -0.01334,-0.0062 -0.0683,-0.01604 0,0 z m 1.507893,-0.0047 c -0.05253,0.01544 0.05635,-0.01347 0,0 z m -1.468695,0.01249 c -0.01234,-0.0037 -0.05886,-0.01001 0,0 z m 1.428027,-0.0032 c -0.04521,0.0096 0.04453,-0.0078 0,0 z m -1.376825,0.01053 c -0.009,-0.0018 -0.04458,-0.0054 0,0 z m 1.321458,-0.0015 c -0.03515,0.005 0.03628,-0.0046 0,0 z"
       id="path1"
       transform="matrix(0.26458333,0,0,0.26458333,66.249014,106.42354)" /><path
       style="fill:#ffffff;stroke:#ffffff;stroke-width:0.0569078;stroke-dasharray:none;stroke-opacity:1"
       d="m 19.0852,21.651436 c -0.881943,-0.02977 -2.12182,0.2145 -2.188221,1.300145 -0.129226,2.365423 0.909158,4.742892 0.171652,7.088361 -0.707633,2.614014 -2.17532,4.940256 -3.459129,7.292114 -0.248205,0.395436 -0.583798,1.00617 -0.814091,1.264377 0.04793,-0.792287 0.561332,-1.693439 0.123474,-2.434679 -0.663941,-0.449102 -1.326504,0.366344 -1.773459,0.797432 -1.5010758,2.026717 -1.4139652,4.701632 -1.3606565,7.100695 0.026032,1.850065 0.3642775,3.885397 1.8386795,5.163059 0.628442,0.603662 1.070041,-0.479843 1.484075,-0.852272 0.233486,-0.202476 0.590949,-1.007083 0.621287,-0.293249 0.587562,1.773511 2.514678,2.582447 4.128273,3.19021 2.623154,0.91053 5.526676,1.169744 8.239816,0.532577 0.655518,-0.271104 1.694263,-0.35243 1.927621,-1.137688 -0.133275,-0.743139 -1.136388,-0.797611 -1.670075,-1.150212 -0.242378,-0.168774 0.812634,-0.112726 1.109706,-0.220325 0.84582,-0.18564 2.175361,-0.332653 2.354406,-1.374784 -0.101643,-1.051011 -1.400548,-1.260588 -2.25524,-1.320951 -0.895798,-0.0155 -0.05559,-0.142437 0.373252,-0.286651 1.413403,-0.434387 3.226423,-1.317825 3.256854,-3.022647 -0.05425,-1.249351 -1.485813,-1.712819 -2.541737,-1.695798 -0.837408,0.02892 0.01131,-0.212189 0.361354,-0.397859 1.444153,-0.527007 2.659794,-2.138648 2.083613,-3.701259 -0.708562,-1.751742 -2.710567,-2.755296 -4.5447,-2.676792 -0.790796,0.0346 -1.650677,-0.159329 -2.400183,0.134076 -0.50654,0.683355 0.600841,0.992067 1.035483,1.26694 0.92279,0.336702 -0.0435,0.298807 -0.532281,0.295094 -0.796179,-0.02094 -1.774905,-0.008 -2.48882,-0.147482 0.812884,-0.564608 0.639273,-1.608993 0.429707,-2.427573 -0.20191,-3.007767 1.806009,-5.793825 1.11469,-8.829566 -0.217718,-1.55138 -1.395035,-2.855393 -2.919997,-3.216431 -0.552556,-0.162649 -1.129397,-0.243247 -1.705353,-0.238862 z"
       id="path7"
       transform="matrix(0.26458333,0,0,0.26458333,66.249014,106.42354)" /><path
       style="fill:#ffffff;stroke:#ffffff;stroke-width:0.0569078;stroke-dasharray:none;stroke-opacity:1"
       d="m 70.905281,3.7527065 c -0.76253,-0.093949 -1.249531,0.7020531 -0.988032,1.3780503 1.020467,3.7720988 0.492664,7.7320762 1.038744,11.5775822 0.168929,0.74813 0.620993,1.728674 1.55836,1.547826 1.413291,-0.181506 1.856298,-1.830799 2.182587,-2.986143 C 75.327956,12.37616 75.355866,9.3475825 74.916227,6.4247428 74.76015,5.1804794 73.820446,4.0733409 72.541302,3.9217474 72.003074,3.8205615 71.453673,3.7499778 70.905281,3.7527065 Z"
       id="path8"
       transform="matrix(0.26458333,0,0,0.26458333,66.249014,106.42354)" /><path
       style="fill:#000000;fill-opacity:1;stroke:#ffffff;stroke-width:0.120039;stroke-dasharray:none;stroke-opacity:1"
       d="m 70.229497,120.05322 c -0.502869,-0.18155 -1.082939,-0.58406 -1.289042,-0.89447 -0.206104,-0.31041 -0.529671,-0.56438 -0.719038,-0.56438 -0.616189,0 -1.972403,-1.3489 -1.972403,-1.96177 0,-0.96045 1.391106,-2.01079 3.571875,-2.69693 1.058333,-0.33298 1.058333,-0.33298 0.198437,-0.35068 -0.580096,-0.0119 -0.859895,-0.14684 -0.859895,-0.41458 0,-0.26458 -0.264584,-0.39687 -0.79375,-0.39687 -0.79375,0 -0.79375,0 -0.79375,-1.85209 0,-1.85208 0,-1.85208 0.79375,-1.85208 0.617361,0 0.79375,-0.11759 0.79375,-0.52917 0,-0.44097 0.176389,-0.52916 1.058333,-0.52916 0.999537,0 1.058333,-0.0441 1.058333,-0.79375 0,-0.79375 0,-0.79375 3.175,-0.79375 2.998611,0 3.175,0.0294 3.175,0.52916 0,0.44098 0.176389,0.52917 1.058334,0.52917 0.582083,0 1.058333,0.11906 1.058333,0.26458 0,0.14552 0.47625,0.26459 1.058333,0.26459 0.881945,0 1.058334,0.0882 1.058334,0.52916 0,0.29105 0.119062,0.52917 0.264583,0.52917 0.145521,0 0.264583,-0.23812 0.264583,-0.52917 0,-0.40661 0.176389,-0.52916 0.761651,-0.52916 0.761084,0 1.068991,0.41955 1.456313,1.98437 0.07204,0.29104 0.108483,-0.18521 0.08099,-1.05833 -0.04688,-1.48871 -0.01069,-1.59306 0.581544,-1.6768 0.787914,-0.1114 1.07338,0.32204 1.104333,1.6768 0.02418,1.05833 0.02418,1.05833 0.358387,0.13229 0.256175,-0.70983 0.483131,-0.92604 0.972058,-0.92604 0.556251,0 0.63539,0.11847 0.618606,0.92604 -0.01059,0.50932 -0.117405,1.16417 -0.237378,1.45521 -0.179602,0.43569 -0.155172,0.47075 0.138308,0.19844 0.196043,-0.1819 0.570754,-0.33073 0.832691,-0.33073 0.759116,0 0.579048,1.12543 -0.3175,1.98437 -0.436562,0.41826 -0.79375,1.01309 -0.79375,1.32185 0,0.30876 -0.174807,0.7925 -0.38846,1.07498 -0.213653,0.28247 -0.392247,0.71086 -0.396875,0.95197 -0.0059,0.30641 -0.539559,0.6051 -1.772765,0.99219 -2.980888,0.93566 -4.571983,0.66371 -5.99226,-1.02419 -0.675893,-0.80326 -0.675893,-0.80326 -3.867975,-0.80326 -1.951665,0 -3.192081,0.10282 -3.192081,0.26459 0,0.14552 0.40214,0.26458 0.893644,0.26458 1.252976,0 1.57675,0.50895 1.432253,2.2514 -0.210888,2.54303 -1.727425,3.35847 -4.430831,2.38245 z m 3.056137,-0.0499 c 0.431795,-0.16569 0.428588,-0.19294 -0.04451,-0.37828 -0.472859,-0.18524 -0.467793,-0.20106 0.06988,-0.21831 0.877758,-0.0282 1.023104,-0.54286 0.163522,-0.57907 -0.743219,-0.0313 -0.743219,-0.0313 0.0473,-0.20048 0.986413,-0.21109 1.264517,-1.08304 0.35336,-1.1079 -0.614713,-0.0168 -0.614713,-0.0168 -0.0194,-0.25606 1.074085,-0.43173 0.541485,-1.59527 -0.714375,-1.56066 -0.614193,0.0169 -0.627241,0.039 -0.145521,0.24599 0.428261,0.18403 0.352582,0.22695 -0.396875,0.2251 -0.509323,-10e-4 -0.783902,-0.0601 -0.610176,-0.13079 0.173726,-0.0707 0.252169,-0.29449 0.174317,-0.49737 -0.07785,-0.20288 -0.0043,-0.78467 0.163398,-1.29287 0.392175,-1.1883 0.004,-2.00824 -0.950729,-2.00824 -0.63818,0 -0.665824,0.0567 -0.501553,1.02903 0.144229,0.85368 0.03006,1.29327 -0.669965,2.57969 -0.550124,1.01094 -0.780928,1.28133 -0.663127,0.77685 0.158955,-0.68072 0.130946,-0.73253 -0.232819,-0.43063 -0.466744,0.38737 -0.561023,2.2903 -0.144878,2.92423 0.231584,0.35278 0.28948,0.35278 0.521064,0 0.165225,-0.25169 0.262014,-0.27898 0.264583,-0.0746 0.0095,0.75941 2.20676,1.3879 3.336504,0.95437 z m -4.551386,-3.41495 c 0.245535,-0.63986 0.203476,-0.68139 -0.375978,-0.37127 -0.295117,0.15794 -0.466684,0.40025 -0.38126,0.53847 0.233835,0.37835 0.576962,0.30259 0.757238,-0.1672 z m 18.099763,-0.87509 c 0.08038,-0.24387 -0.0017,-0.30404 -0.243901,-0.17882 -0.20078,0.10381 -0.176143,0.0311 0.05475,-0.1616 0.568199,-0.4742 1.035405,-1.39233 1.035405,-2.03474 0,-0.29069 0.357188,-0.78288 0.79375,-1.09374 0.436562,-0.31086 0.79375,-0.79522 0.79375,-1.07635 0,-0.64623 -0.133476,-0.64054 -1.098869,0.0469 -1.033862,0.73618 -1.173435,0.51971 -0.507089,-0.78643 0.687343,-1.34731 0.723513,-2.22552 0.08661,-2.10287 -0.574539,0.11065 -1.620825,2.8195 -1.191507,3.08483 0.155938,0.0964 -0.271655,0.17461 -0.950206,0.17386 -1.228884,-0.001 -1.233954,-0.005 -1.290744,-0.95232 -0.08763,-1.46152 -0.515629,-2.35635 -1.127062,-2.35635 -0.632817,0 -0.658291,0.2991 -0.14647,1.71979 0.209703,0.58209 0.386504,1.44529 0.392891,1.91823 0.01017,0.75264 0.09977,0.8599 0.718384,0.8599 0.726071,0 1.67448,0.656 1.67448,1.15821 0,0.15535 -0.185345,0.0178 -0.411878,-0.30559 -0.237237,-0.3387 -0.689931,-0.58804 -1.067642,-0.58804 -0.360671,0 -0.941248,-0.18706 -1.290172,-0.41568 -0.500625,-0.32802 -0.753128,-0.35214 -1.197393,-0.11438 -0.754067,0.40357 -0.56872,0.80248 0.53924,1.16059 0.502866,0.16253 0.916126,0.41457 0.918355,0.5601 0.0071,0.46112 0.427927,0.95544 1.01521,1.19239 0.475579,0.19189 0.49019,0.23201 0.0896,0.24604 -0.264677,0.009 -0.401804,0.14109 -0.30676,0.29488 0.252262,0.40816 2.570693,0.19589 2.717268,-0.24879 z m -3.38708,-0.17475 c 0,-0.08 -0.175666,-0.48513 -0.390368,-0.90032 -0.325256,-0.62897 -0.614936,-0.78577 -1.736731,-0.94006 -0.7405,-0.10184 -1.409973,-0.12156 -1.487717,-0.0438 -0.207957,0.20795 0.752275,1.42423 1.365857,1.73006 0.564908,0.28156 2.248959,0.39698 2.248959,0.15413 z m -4.7625,-4.35248 c 0,-2.64584 0,-2.64584 -1.058334,-2.64584 -0.881944,0 -1.058333,-0.0882 -1.058333,-0.52916 0,-0.35278 -0.176389,-0.52917 -0.529167,-0.52917 -0.352777,0 -0.529166,0.17639 -0.529166,0.52917 0,0.44097 -0.176389,0.52916 -1.058334,0.52916 -0.881944,0 -1.058333,-0.0882 -1.058333,-0.52916 0,-0.35278 -0.176389,-0.52917 -0.529167,-0.52917 -0.488519,0 -0.529166,0.17639 -0.529166,2.29632 0,1.26298 0.142981,2.69173 0.317735,3.175 0.317735,0.87868 0.317735,0.87868 3.175,0.87868 2.857265,0 2.857265,0 2.857265,-2.64583 z m -5.291667,0 c 0,-1.41111 0.0588,-1.5875 0.529167,-1.5875 0.47037,0 0.529166,0.17639 0.529166,1.5875 0,1.41111 -0.0588,1.5875 -0.529166,1.5875 -0.470371,0 -0.529167,-0.17639 -0.529167,-1.5875 z m 3.175,0 c 0,-1.41111 0.0588,-1.5875 0.529167,-1.5875 0.47037,0 0.529166,0.17639 0.529166,1.5875 0,1.41111 -0.0588,1.5875 -0.529166,1.5875 -0.470371,0 -0.529167,-0.17639 -0.529167,-1.5875 z m -5.987597,0.99218 c 0.08775,-0.32742 0.161164,-1.04179 0.163151,-1.5875 0.002,-0.5457 0.122675,-0.99218 0.268196,-0.99218 0.145521,0 0.264583,-0.1786 0.264583,-0.39688 0,-0.24694 -0.249884,-0.39687 -0.661458,-0.39687 -0.646759,0 -0.661458,0.0441 -0.661458,1.98437 0,1.92739 0.302889,2.59843 0.626986,1.38906 z m 10.485514,-1.38906 c 0,-1.94028 -0.0147,-1.98437 -0.661459,-1.98437 -0.411574,0 -0.661458,0.14993 -0.661458,0.39687 0,0.21828 0.119062,0.39688 0.264583,0.39688 0.145521,0 0.264584,0.53578 0.264584,1.19062 0,0.65485 -0.119063,1.19063 -0.264584,1.19063 -0.145521,0 -0.264583,0.17859 -0.264583,0.39687 0,0.24695 0.249884,0.39688 0.661458,0.39688 0.646759,0 0.661459,-0.0441 0.661459,-1.98438 z m -11.90625,1.19063 c 0,-0.14552 -0.119063,-0.26459 -0.264584,-0.26459 -0.145521,0 -0.264583,-0.35718 -0.264583,-0.79375 0,-0.43656 0.119062,-0.79375 0.264583,-0.79375 0.145521,0 0.264584,-0.11906 0.264584,-0.26458 0,-0.14552 -0.238125,-0.26458 -0.529167,-0.26458 -0.458611,0 -0.529167,0.17639 -0.529167,1.32291 0,1.14653 0.07056,1.32292 0.529167,1.32292 0.291042,0 0.529167,-0.11906 0.529167,-0.26458 z m 13.758333,-0.69652 c 0,-0.46624 -0.07227,-1.03604 -0.160599,-1.26622 -0.175416,-0.45713 -0.897734,-0.58098 -0.897734,-0.15393 0,0.14552 0.119062,0.26458 0.264583,0.26458 0.145521,0 0.264583,0.35719 0.264583,0.79375 0,0.43657 -0.119062,0.79375 -0.264583,0.79375 -0.145521,0 -0.264583,0.0936 -0.264583,0.20789 0,0.11434 0.238125,0.20789 0.529166,0.20789 0.419059,0 0.529167,-0.17639 0.529167,-0.84771 z m 3.051091,-0.9749 c 0.09056,-0.48272 0.125719,-1.28639 0.07813,-1.78594 -0.06913,-0.72577 -0.213619,-0.92624 -0.719071,-0.9977 -0.499184,-0.0706 -0.596809,0.004 -0.463021,0.35237 0.09324,0.24299 0.169534,1.08691 0.169534,1.87537 0,1.07805 0.09545,1.43357 0.384886,1.43357 0.226349,0 0.452706,-0.36152 0.549538,-0.87767 z"
       id="path37867" /></g></svg>
